<svg width="21" height="20" viewBox="0 0 21 20" fill="none" xmlns="http://www.w3.org/2000/svg">
<path d="M11.7471 1.03051C11.082 0.663783 10.2771 0.662273 9.6106 1.0265L1.8464 5.26957C1.1284 5.66195 0.681372 6.41788 0.681361 7.23965L0.681274 13.7099C0.681263 14.5681 1.16834 15.351 1.93576 15.7264L3.03375 16.2634C3.30345 15.6136 3.63002 14.981 4.02375 14.3983C6.21226 11.1593 7.75277 10.1124 9.18688 9.15382C9.2941 9.08216 9.29785 8.92535 9.19433 8.84839L5.87048 6.37744C5.81741 6.33799 5.82102 6.25704 5.87738 6.22252L6.8852 5.60524C6.9365 5.57382 6.99973 5.56928 7.05495 5.59304L9.23732 6.53211C9.29363 6.55634 9.35819 6.55111 9.40991 6.51813L10.1778 6.02853C10.2215 6.00064 10.2795 6.0141 10.3066 6.05843L10.7635 6.80431C10.7853 6.83991 10.7809 6.88574 10.7528 6.91652L10.6731 7.00371C10.6294 7.05153 10.6464 7.12848 10.7061 7.15328L11.7232 7.57585C11.7553 7.58918 11.792 7.58331 11.8191 7.56158C12.2643 7.20534 13.383 6.60039 14.752 6.6662C14.8625 6.67151 14.9386 6.77645 14.8999 6.88074C14.6993 7.42095 14.0614 8.37242 12.6356 9.05432C12.6063 9.06834 12.5857 9.09674 12.5821 9.1292L12.4674 10.1766C12.4614 10.232 12.5044 10.2803 12.5598 10.2803H12.692C12.7263 10.2803 12.7578 10.2993 12.7739 10.3296L13.1698 11.0732C13.1929 11.1167 13.1785 11.1707 13.1369 11.1967L12.3058 11.7154C12.282 11.7303 12.2661 11.7552 12.2626 11.7831L11.9574 14.2152C11.9535 14.2459 11.9348 14.2727 11.9074 14.2867L10.7838 14.8623C10.7246 14.8927 10.6538 14.8525 10.649 14.7859L10.3434 10.5458C10.3388 10.4817 10.2733 10.4413 10.2157 10.4688C9.10962 10.9971 7.04084 12.66 6.75299 15.5699C6.65953 16.5147 6.71623 17.3755 6.88412 18.1465L9.70478 19.5261C10.3204 19.8272 11.0395 19.8272 11.6551 19.5261L19.4242 15.7263C20.1916 15.351 20.6787 14.5681 20.6787 13.7099V7.28277C20.6787 6.46399 20.2348 5.71031 19.5209 5.31667L11.7471 1.03051Z" fill="#316BFF"/>
</svg>
